# xmcd
#
# Track frame offsets: 
#        183
#        22180
#        33393
#        52528
#        67983
#        84195
#        110933
#        136943
#
# Disc length: 2244 seconds
#
# Revision: 1
# Processed by: cddbd v1.5.2PL0 Copyright (c) Steve Scherf et al.
# Submitted via: ExactAudioCopy v0.99pb4
#
DISCID=6008c208
DTITLE=Nina Simone - Songs of the Poets: Dylan, Harrison and Simone
DYEAR=1992
DGENRE=Jazz
TTITLE0=Just Like A Woman
TTITLE1=The Backlash Blues
TTITLE2=Just Like Tom Thumb's Blues
TTITLE3=I Shall Be Released
TTITLE4=Here Comes The Sun
TTITLE5=The Times They Are A-Changin'
TTITLE6=I Want A Little Sugar In My Bowl
TTITLE7=To Be Young Gifted And Black
EXTD=
EXTT0=
EXTT1=
EXTT2=
EXTT3=
EXTT4=
EXTT5=
EXTT6=
EXTT7=
PLAYORDER=
